<?xml version="1.0" encoding="UTF-8" standalone="no"?><!DOCTYPE svg PUBLIC "-//W3C//DTD SVG 1.1//EN" "http://www.w3.org/Graphics/SVG/1.1/DTD/svg11.dtd"><svg width="100%" height="100%" viewBox="0 0 41 37" version="1.1" xmlns="http://www.w3.org/2000/svg" xmlns:xlink="http://www.w3.org/1999/xlink" xml:space="preserve" style="fill-rule:evenodd;clip-rule:evenodd;stroke-linejoin:round;stroke-miterlimit:1.41421;"><path d="M39.756,0.733c-0.243,-0.203 -0.568,-0.244 -0.852,-0.122l-37.061,16.237c-0.609,0.244 -0.975,0.852 -0.934,1.542c0.041,0.691 0.446,1.259 1.096,1.502l10.838,3.573l0,9.742c0,0.893 0.568,1.664 1.421,1.908c0.852,0.284 1.786,-0.041 2.314,-0.772l4.546,-6.576l9.621,8.281c0.284,0.244 0.649,0.366 1.055,0.366c0.203,0 0.365,-0.041 0.528,-0.082c0.568,-0.203 0.974,-0.649 1.055,-1.217l6.657,-33.57c0.041,-0.285 -0.081,-0.609 -0.284,-0.812Zm-19.444,25.329l-5.074,7.348c-0.162,0.243 -0.365,0.203 -0.487,0.162c-0.081,0 -0.284,-0.122 -0.284,-0.365l0,-10.311c0,-0.365 -0.203,-0.649 -0.568,-0.771l-11.407,-3.816l32.961,-14.41l-16.237,13.355c-0.365,0.284 -0.406,0.812 -0.122,1.136c0.163,0.203 0.406,0.285 0.609,0.285c0.163,0 0.366,-0.041 0.528,-0.203l14.086,-11.569l-14.005,19.159Zm11.488,8.728l-9.742,-8.362l15.587,-21.271l-5.845,29.633Z" style="fill-rule:nonzero;"/></svg>