<svg version="1.1" id="Layer_1" xmlns="http://www.w3.org/2000/svg" xmlns:xlink="http://www.w3.org/1999/xlink" x="0px" y="0px"
	 viewBox="0 0 48 48" style="enable-background:new 0 0 48 48;" xml:space="preserve">
<style type="text/css">
	.st0{fill:#00A6BC;}
</style>
<path class="st0" d="M15.9,9.1c1.3,1.3,2.1,3.1,2.1,4.9c0,0.6-0.4,1-1,1s-1-0.4-1-1c0-1.3-0.5-2.6-1.5-3.5C13.6,9.5,12.3,9,11,9
	c-0.6,0-1-0.4-1-1s0.4-1,1-1C12.9,7,14.6,7.7,15.9,9.1z M37,7c-0.6,0-1,0.4-1,1s0.4,1,1,1c1.3,0,2.6,0.5,3.5,1.5
	c0.9,0.9,1.5,2.2,1.5,3.5c0,0.6,0.4,1,1,1s1-0.4,1-1c0-1.9-0.7-3.6-2.1-4.9C40.6,7.7,38.9,7,37,7z M48,14v10.2
	c0,1.5-0.6,2.8-1.7,3.8L36,36.7c-1,0.9-1.3,2.4-0.7,3.6l1.6,3.2c0.2,0.5,0,1.1-0.4,1.3C36.3,45,36.2,45,36,45
	c-0.4,0-0.7-0.2-0.9-0.6l-1.6-3.2c-1-2.1-0.5-4.5,1.2-6L45,26.4c0.7-0.6,1-1.4,1-2.3v-3.9c-0.4,0.5-0.8,1-1.2,1.5
	C42.7,23.9,39.9,25,37,25s-5.7-1.1-7.8-3.2c-2-2-3-4.6-3.2-7.2c-0.6-0.4-1.3-0.6-2-0.6c-0.7,0-1.4,0.2-2,0.6
	c-0.1,2.6-1.2,5.2-3.2,7.1C16.7,23.9,13.9,25,11,25s-5.7-1.1-7.8-3.2c-0.5-0.5-0.9-1-1.2-1.5v3.9c0,0.9,0.4,1.7,1,2.3l10.2,8.8
	c1.7,1.5,2.2,4,1.2,6l-1.6,3.2C12.7,44.8,12.4,45,12,45c-0.2,0-0.3,0-0.4-0.1c-0.5-0.2-0.7-0.8-0.4-1.3l1.6-3.2
	c0.6-1.2,0.3-2.7-0.7-3.6L1.7,28C0.6,27,0,25.6,0,24.2V14c0,0,0,0,0,0c0-2.8,1.1-5.6,3.2-7.7C5.3,4.1,8.1,3,11,3s5.7,1.1,7.8,3.2
	c1.7,1.7,2.8,3.9,3.1,6.2c0.7-0.3,1.4-0.4,2.1-0.4c0.7,0,1.5,0.2,2.1,0.4c0.3-2.3,1.3-4.5,3.1-6.2C31.3,4.1,34.1,3,37,3
	s5.7,1.1,7.8,3.2C46.9,8.4,48,11.2,48,14C48,14,48,14,48,14z M20,14c0-2.4-0.9-4.7-2.6-6.4C15.7,5.9,13.4,5,11,5S6.3,5.9,4.6,7.6
	C2.9,9.3,2,11.6,2,14s0.9,4.7,2.6,6.4c1.7,1.7,4,2.6,6.4,2.6s4.7-0.9,6.4-2.6C19.1,18.7,20,16.4,20,14z M46,14
	c0-2.4-0.9-4.7-2.6-6.4C41.7,5.9,39.4,5,37,5s-4.7,0.9-6.4,2.6c-1.7,1.7-2.6,4-2.6,6.4s0.9,4.7,2.6,6.4c1.7,1.7,4,2.6,6.4,2.6
	s4.7-0.9,6.4-2.6C45.1,18.7,46,16.4,46,14z"/>
</svg>
