<svg version="1.1" id="Layer_1" xmlns="http://www.w3.org/2000/svg" xmlns:xlink="http://www.w3.org/1999/xlink" x="0px" y="0px"
	 viewBox="0 0 53 44.9" style="enable-background:new 0 0 53 44.9;" xml:space="preserve">
<style type="text/css">
	.st0{fill:#fff;}
</style>
<g>
	<path class="st0" d="M47,8H36.5V6c0-3.3-2.7-6-6-6h-8c-3.3,0-6,2.7-6,6v2H6.1c-3.3,0-6,2.6-6,5.9v25c0,3.3,2.7,6,6,6H47
		c3.3,0,6-2.7,6-6V14C53,10.7,50.3,8,47,8z M18.6,6c0-2.2,1.8-4,4-4h8c2.2,0,4,1.8,4,4v2h-16V6z M6.1,12H47c1.1,0,2,0.9,2,2v20
		c-3.6,0.4-6.5,3.3-6.9,6.9H10.9c-0.4-3.6-3.2-6.5-6.9-6.9V14C4.1,12.9,5,12,6.1,12z M4.1,38.9V36c2.5,0.4,4.5,2.4,4.8,4.9H6.1
		C5,40.9,4.1,40,4.1,38.9z M47,40.9h-2.8c0.4-2.5,2.3-4.5,4.8-4.9v2.9C49,40,48.1,40.9,47,40.9z"/>
	<path class="st0" d="M21.4,29.8h1.8l0,1.8c0,1.6,1.1,2.9,2.7,3.3c0.2,0,0.5,0.1,0.7,0.1c0.8,0,1.5-0.3,2.1-0.7
		c0.8-0.6,1.2-1.6,1.2-2.6v-1.8h1.8c1.6,0,2.9-1.1,3.3-2.7c0.2-1,0-2-0.7-2.8c-0.6-0.8-1.6-1.2-2.6-1.2h-1.8v-1.8c0-1-0.5-2-1.2-2.6
		c-0.6-0.5-1.3-0.7-2.1-0.7c-0.2,0-0.5,0-0.7,0.1c-1.5,0.3-2.6,1.7-2.6,3.2l0,1.8h-1.8c-1,0-2,0.5-2.6,1.2c-0.6,0.8-0.9,1.8-0.7,2.8
		C18.5,28.7,19.8,29.8,21.4,29.8z M20.3,25.6c0.3-0.3,0.6-0.5,1-0.5h1.8h2v-2l0-1.8c0-0.6,0.4-1.2,1-1.3c0.1,0,0.2,0,0.3,0
		c0.3,0,0.6,0.1,0.8,0.3c0.3,0.3,0.5,0.6,0.5,1v1.8l0,2h2h1.8c0.4,0,0.8,0.2,1,0.5c0.3,0.3,0.4,0.7,0.3,1.1
		c-0.1,0.6-0.7,1.1-1.3,1.1h-1.8h-2l0,2v1.8c0,0.4-0.2,0.8-0.5,1c-0.2,0.2-0.5,0.3-0.8,0.3c-0.1,0-0.2,0-0.3,0
		c-0.6-0.1-1.1-0.7-1.1-1.3l0-1.8v-2h-2h-1.8c-0.6,0-1.2-0.4-1.3-1C20,26.3,20.1,25.9,20.3,25.6z"/>
</g>
</svg>
