<svg version="1.1" id="Layer_1" xmlns="http://www.w3.org/2000/svg" xmlns:xlink="http://www.w3.org/1999/xlink" x="0px" y="0px"
	 viewBox="0 0 48 48" style="enable-background:new 0 0 48 48;" xml:space="preserve">
<style type="text/css">
	.st0{fill:#00A6BC;}
</style>
<path class="st0" d="M47.7,46.3l-6-6c1.5-1.8,2.3-4,2.3-6.3c0-2.7-1-5.2-2.9-7.1C39.2,25,36.7,24,34,24s-5.2,1-7.1,2.9
	C25,28.8,24,31.3,24,34s1,5.2,2.9,7.1C28.8,43,31.3,44,34,44c2.3,0,4.5-0.8,6.3-2.3l6,6c0.2,0.2,0.5,0.3,0.7,0.3s0.5-0.1,0.7-0.3
	C48.1,47.3,48.1,46.7,47.7,46.3z M34,42c-2.1,0-4.1-0.8-5.7-2.3C26.8,38.1,26,36.1,26,34s0.8-4.1,2.3-5.7c1.5-1.5,3.5-2.3,5.7-2.3
	c2.1,0,4.1,0.8,5.7,2.3c1.5,1.5,2.3,3.5,2.3,5.7s-0.8,4.1-2.3,5.7C38.1,41.2,36.1,42,34,42z M8,34v-2h11v2H8z M8,7h6v2H8V7z M31,7h3
	v2h-3V7z M26,7h3v2h-3V7z M21,7h3v2h-3V7z M33.7,16.3c0.4,0.4,0.4,1,0,1.4l-4,4c-0.4,0.4-1,0.4-1.4,0L25,18.4l-5.3,5.3
	C19.5,23.9,19.3,24,19,24s-0.5-0.1-0.7-0.3L13,18.4l-5.3,5.3c-0.4,0.4-1,0.4-1.4,0s-0.4-1,0-1.4l6-6c0.4-0.4,1-0.4,1.4,0l5.3,5.3
	l5.3-5.3c0.4-0.4,1-0.4,1.4,0l3.3,3.3l3.3-3.3C32.7,15.9,33.3,15.9,33.7,16.3z M6,40c-2.2,0-4-1.8-4-4v-8h21.6
	c0.4-0.7,0.9-1.4,1.5-2H2V14h38v9.6c0.7,0.4,1.4,0.9,2,1.5V6c0-3.3-2.7-6-6-6H6C2.7,0,0,2.7,0,6v30c0,3.3,2.7,6,6,6h19.1
	c-0.6-0.6-1-1.3-1.5-2H6z M2,6c0-2.2,1.8-4,4-4h30c2.2,0,4,1.8,4,4v6H2V6z"/>
</svg>
