<svg version="1.1" id="Layer_1" xmlns="http://www.w3.org/2000/svg" xmlns:xlink="http://www.w3.org/1999/xlink" x="0px" y="0px"
	 viewBox="0 0 128 128" style="enable-background:new 0 0 128 128;" xml:space="preserve">
<style type="text/css">
	.st0{fill:#00A6BC;}
</style>
<path class="st0" d="M123.8,81.5c-0.2,0.9-1,1.5-1.9,1.5c-0.2,0-0.3,0-0.5-0.1c-1.1-0.3-1.7-1.4-1.4-2.4c8.6-32-10.5-64.9-42.4-73.5
	c-1.1-0.3-1.7-1.4-1.4-2.4s1.4-1.7,2.4-1.4c16.5,4.4,30.3,15,38.9,29.8S128.2,65,123.8,81.5z M74.4,18.6c-1.1-0.3-2.2,0.3-2.4,1.4
	c-0.3,1.1,0.3,2.2,1.4,2.4c11.4,3,20.8,10.3,26.7,20.5c5.9,10.2,7.4,22,4.4,33.4c-0.3,1.1,0.3,2.2,1.4,2.4c0.2,0,0.3,0.1,0.5,0.1
	c0.9,0,1.7-0.6,1.9-1.5c3.3-12.4,1.6-25.3-4.8-36.4C97.1,29.8,86.7,21.9,74.4,18.6z M91.1,83.4c0.7,1.2,0.7,2.7,0,4
	c-0.7,1.2-2,2-3.4,2l-16.5,0.2c-5.6,0.1-11.1,0.9-16.4,2.4c0.4,1.8,0.3,3.6-0.2,5.4c-0.7,2.4-2,4.6-3.9,6.1l3.1,5.3
	c2.8,4.8,1.1,10.9-3.7,13.7l-1.7,1c-1.5,0.9-3.2,1.3-5,1.3c-3.6,0-6.9-1.9-8.7-5l-8-13.9L25,107c-1.5,0.9-3.2,1.3-5,1.3
	c-3.6,0-6.9-1.9-8.7-5l-8-13.9c-1.3-2.3-1.7-5-1-7.6c0.7-2.6,2.3-4.7,4.7-6.1l15.8-9.1c9.2-5.3,16.9-13,22.3-22.1l8.4-14.2
	c0.7-1.2,2-2,3.4-2c1.4,0,2.7,0.7,3.5,2l10.9,18.9c3.9-1.2,8.3,0.4,10.4,4.1c1.2,2.1,1.5,4.5,0.9,6.8c-0.4,1.7-1.3,3.1-2.6,4.3
	L91.1,83.4z M72.4,51.1l6.7,11.6c0.8-0.8,1.4-1.9,1.7-3c0.5-1.8,0.2-3.7-0.7-5.3C78.5,51.7,75.4,50.4,72.4,51.1z M24.7,102.6
	L24.7,102.6l15.6-9c0.2-0.1,0.3-0.2,0.5-0.2c4.1-2.2,8.3-3.9,12.7-5.2L37.5,60.6c-3.8,3.7-8.1,6.9-12.7,9.5L9,79.3
	c-1.4,0.8-2.4,2.1-2.8,3.6c-0.4,1.5-0.2,3.2,0.6,4.6l8,13.9c1.1,1.9,3.1,3,5.2,3c1,0,2.1-0.3,3-0.8L24.7,102.6z M50.3,110.9l-8-13.8
	c-0.5,0.3-1,0.5-1.4,0.8l-1.8,1l-8.9,5.2l8,13.9c1.1,1.9,3.1,3,5.2,3c1,0,2.1-0.3,3-0.8l1.7-1C50.9,117.5,51.9,113.8,50.3,110.9z
	 M50.9,93.3c-1.7,0.6-3.4,1.3-5.1,2.1l2.7,4.7c1-1,1.8-2.2,2.1-3.6C51,95.4,51.1,94.3,50.9,93.3z M80.7,85.5L53.5,38.4l-4.9,8.3
	c-2.7,4.6-5.9,8.8-9.6,12.5l16.4,28.5c5.1-1.3,10.4-2,15.7-2.1L80.7,85.5z M87.6,85.4L57,32.5l-2.3,3.9L83,85.5L87.6,85.4z"/>
</svg>
