<svg version="1.1" id="Layer_1" xmlns="http://www.w3.org/2000/svg" xmlns:xlink="http://www.w3.org/1999/xlink" x="0px" y="0px"
	 viewBox="0 0 72 72" style="enable-background:new 0 0 72 72;" xml:space="preserve">
<style type="text/css">
	.st0{fill:#00A6BC;}
</style>
<path class="st0" d="M36,46.5c-5.8,0-10.5-4.7-10.5-10.5S30.2,25.5,36,25.5S46.5,30.2,46.5,36S41.8,46.5,36,46.5z M36,28.5
	c-4.1,0-7.5,3.4-7.5,7.5s3.4,7.5,7.5,7.5s7.5-3.4,7.5-7.5S40.1,28.5,36,28.5z M36,72c-3.3,0-6.6-0.5-9.8-1.4l-1.1-0.3v-6.7
	c-2.7-1.1-5.3-2.5-7.6-4.4l-5.8,3.3l-0.8-0.8c-4.8-4.7-8.2-10.5-9.8-17l-0.3-1.1l5.8-3.3c-0.2-1.5-0.3-2.9-0.3-4.4s0.1-2.9,0.3-4.4
	l-5.8-3.3l0.3-1.1c1.6-6.5,5-12.3,9.8-17l0.8-0.8l5.8,3.3c2.3-1.8,4.8-3.3,7.6-4.4V1.7l1.1-0.3c6.4-1.8,13.2-1.8,19.6,0l1.1,0.3v6.7
	c2.7,1.1,5.3,2.5,7.6,4.4l5.8-3.3l0.8,0.8c4.8,4.7,8.2,10.5,9.8,17l0.3,1.1l-5.8,3.3c0.2,1.5,0.3,2.9,0.3,4.4s-0.1,2.9-0.3,4.4
	l5.8,3.3l-0.3,1.1c-1.6,6.5-5,12.3-9.8,17l-0.8,0.8l-5.8-3.3c-2.3,1.8-4.8,3.3-7.6,4.4v6.7l-1.1,0.3C42.6,71.5,39.3,72,36,72z
	 M28.1,68c5.2,1.3,10.6,1.3,15.8,0v-6.5l1-0.4c3.1-1.1,6-2.7,8.4-4.9l0.8-0.7l5.6,3.2c3.7-3.9,6.4-8.6,7.9-13.7l-5.6-3.3l0.2-1
	c0.3-1.7,0.5-3.3,0.5-4.9s-0.2-3.2-0.5-4.9l-0.2-1l5.6-3.3c-1.5-5.1-4.2-9.8-7.9-13.7l-5.6,3.2l-0.8-0.7c-2.5-2.1-5.3-3.8-8.4-4.9
	l-1-0.4V4c-5.2-1.3-10.6-1.3-15.8,0v6.5l-1,0.4c-3.1,1.1-6,2.7-8.4,4.9l-0.8,0.7l-5.6-3.2C8.5,17,5.8,21.7,4.3,26.8l5.6,3.3l-0.2,1
	c-0.3,1.7-0.5,3.3-0.5,4.9s0.2,3.2,0.5,4.9l0.2,1l-5.6,3.3c1.5,5.1,4.2,9.8,7.9,13.7l5.6-3.2l0.8,0.7c2.5,2.1,5.3,3.8,8.4,4.9l1,0.4
	V68z"/>
</svg>
