<svg version="1.1" id="Layer_1" xmlns="http://www.w3.org/2000/svg" xmlns:xlink="http://www.w3.org/1999/xlink" x="0px" y="0px"
	 viewBox="0 0 48 48" style="enable-background:new 0 0 48 48;" xml:space="preserve">
<style type="text/css">
	.st0{fill:#00A6BC;}
</style>
<path class="st0" d="M43.6,16.2C41.9,6.9,33.7,0,24,0S6.1,6.9,4.4,16.2C1.9,16.9,0,19.3,0,22v10c0,3.3,2.7,6,6,6h4c1.7,0,3-1.3,3-3
	V19c0-1.7-1.3-3-3-3H8.5C10.3,9,16.6,4,24,4s13.7,5,15.5,12H38c-1.7,0-3,1.3-3,3v16c0,1.7,1.3,3,3,3h1v2c0,1.7-1.3,3-3,3h-5
	c0-1.7-1.3-3-3-3h-8c-1.7,0-3,1.3-3,3v2c0,1.7,1.3,3,3,3h8c1.7,0,3-1.3,3-3h5c2.8,0,5-2.2,5-5v-2h1c3.3,0,6-2.7,6-6V22
	C48,19.3,46.1,16.9,43.6,16.2z M9,34H6c-1.1,0-2-0.9-2-2V22c0-1.1,0.9-2,2-2h3V34z M29,45c0,0.6-0.4,1-1,1h-8c-0.6,0-1-0.4-1-1v-2
	c0-0.6,0.4-1,1-1h8c0.6,0,1,0.4,1,1V45z M44,32c0,1.1-0.9,2-2,2h-3V20h3c1.1,0,2,0.9,2,2V32z"/>
</svg>
