<svg version="1.1" id="Layer_1" xmlns="http://www.w3.org/2000/svg" xmlns:xlink="http://www.w3.org/1999/xlink" x="0px" y="0px"
	 viewBox="0 0 72 72" style="enable-background:new 0 0 72 72;" xml:space="preserve">
<style type="text/css">
	.st0{fill:#ffffff;}
</style>
<path class="st0" d="M44.1,57c0,0.8-0.7,1.5-1.5,1.5H29.4c-0.8,0-1.5-0.7-1.5-1.5s0.7-1.5,1.5-1.5h13.2C43.5,55.5,44.1,56.2,44.1,57
	z M42.6,60H29.4c-0.8,0-1.5,0.7-1.5,1.5s0.7,1.5,1.5,1.5h13.2c0.8,0,1.5-0.7,1.5-1.5S43.5,60,42.6,60z M43,65.5
	c0,0.8-0.7,1.5-1.5,1.5h-0.2c-0.2,2.8-2.5,5-5.3,5s-5.1-2.2-5.3-5h-0.2c-0.8,0-1.5-0.7-1.5-1.5s0.7-1.5,1.5-1.5h11
	C42.3,64,43,64.7,43,65.5z M38.3,67h-4.6c0.2,1.1,1.2,2,2.3,2S38.1,68.1,38.3,67z M54.1,29.1c0,4.4-1.9,8-3.3,10.4
	c-5.2,8.7-6.7,13.4-6.7,13.5L43.7,54l-1.1,0H28.3l-0.3-1.1c0,0-1.5-4.8-6.7-13.5c-1.4-2.4-3.3-6-3.3-10.4C17.9,19.1,26,11,36,11
	S54.1,19.1,54.1,29.1z M51.1,29.1C51.1,20.8,44.3,14,36,14s-15.1,6.8-15.1,15.1c0,2.8,0.9,5.6,2.9,8.8c4,6.8,5.9,11.2,6.6,13.1h2.4
	c-1.3-4.1-4.4-13.8-5-18.6c-0.1-0.9,0.2-1.9,0.8-2.6c1.3-1.4,3.6-1.6,5.1-0.5c1.2-0.9,3.2-0.9,4.4,0c1.4-1.1,3.8-0.9,5.1,0.5
	c0.7,0.7,1,1.7,0.8,2.6c-0.6,4.8-3.6,14.5-5,18.6h2.4c0.7-1.9,2.6-6.3,6.6-13.1C50.2,34.7,51.1,31.9,51.1,29.1z M41.1,32
	c0,0,0-0.1-0.1-0.3c-0.1-0.2-0.4-0.3-0.6-0.3c-0.4,0-0.7,0.3-0.7,0.7h-3c0-0.4-0.3-0.7-0.7-0.7s-0.7,0.3-0.7,0.7h-3
	c0-0.4-0.3-0.7-0.7-0.7c-0.2,0-0.5,0.1-0.6,0.3c-0.1,0.1-0.1,0.2-0.1,0.3c0.6,4.8,4.1,15.7,5.1,18.9C37.1,47.7,40.6,36.9,41.1,32z
	 M46.8,10.3c0.2,0.1,0.5,0.2,0.7,0.2c0.5,0,1-0.3,1.3-0.8l2.2-3.8c0.4-0.7,0.2-1.6-0.5-2c-0.7-0.4-1.6-0.2-2,0.5l-2.2,3.8
	C45.9,9,46.1,9.9,46.8,10.3z M15.2,39.4l-3.8,2.2c-0.7,0.4-1,1.3-0.5,2c0.3,0.5,0.8,0.8,1.3,0.8c0.3,0,0.5-0.1,0.7-0.2l3.8-2.2
	c0.7-0.4,1-1.3,0.5-2C16.8,39.2,15.9,39,15.2,39.4z M56.1,19c0.3,0,0.5-0.1,0.7-0.2l3.8-2.2c0.7-0.4,1-1.3,0.5-2
	c-0.4-0.7-1.3-1-2-0.5l-3.8,2.2c-0.7,0.4-1,1.3-0.5,2C55.1,18.7,55.6,19,56.1,19z M14.3,29.1c0-0.8-0.7-1.5-1.5-1.5H8.4
	c-0.8,0-1.5,0.7-1.5,1.5s0.7,1.5,1.5,1.5h4.4C13.6,30.6,14.3,29.9,14.3,29.1z M63.6,27.6h-4.4c-0.8,0-1.5,0.7-1.5,1.5
	s0.7,1.5,1.5,1.5h4.4c0.8,0,1.5-0.7,1.5-1.5S64.4,27.6,63.6,27.6z M11.3,16.6l3.8,2.2c0.2,0.1,0.5,0.2,0.7,0.2c0.5,0,1-0.3,1.3-0.8
	c0.4-0.7,0.2-1.6-0.5-2L12.8,14c-0.7-0.4-1.6-0.2-2,0.5C10.4,15.3,10.6,16.2,11.3,16.6z M60.7,41.6l-3.8-2.2c-0.7-0.4-1.6-0.2-2,0.5
	c-0.4,0.7-0.2,1.6,0.5,2l3.8,2.2c0.2,0.1,0.5,0.2,0.7,0.2c0.5,0,1-0.3,1.3-0.8C61.6,42.9,61.4,42,60.7,41.6z M23.1,9.8
	c0.3,0.5,0.8,0.8,1.3,0.8c0.3,0,0.5-0.1,0.7-0.2c0.7-0.4,1-1.3,0.5-2l-2.2-3.8c-0.4-0.7-1.3-1-2-0.5c-0.7,0.4-1,1.3-0.5,2L23.1,9.8z
	 M36,7.4c0.8,0,1.5-0.7,1.5-1.5V1.5C37.5,0.7,36.8,0,36,0s-1.5,0.7-1.5,1.5v4.4C34.5,6.7,35.2,7.4,36,7.4z"/>
</svg>
