<svg version="1.1" id="Layer_1" xmlns="http://www.w3.org/2000/svg" xmlns:xlink="http://www.w3.org/1999/xlink" x="0px" y="0px"
	 viewBox="0 0 224 100" style="enable-background:new 0 0 224 100;" xml:space="preserve">
<style type="text/css">
	.st0{fill:#00A6BC;}
</style>
<path class="st0" d="M223.7,0.9c-0.6-0.9-1.8-1.2-2.8-0.6l-37.7,23.8c-1.8-1.9-4.4-3.1-7.2-3.1c-5.3,0-9.7,4.2-10,9.5l-47.6,7.1
	c-1.4-3.8-5.1-6.6-9.4-6.6c-5.5,0-10,4.5-10,10c0,1.3,0.3,2.5,0.7,3.7L61.1,70c-1.8-1.8-4.3-3-7.1-3c-5.5,0-10,4.5-10,10
	c0,0.6,0.1,1.2,0.2,1.8L1.3,96.1c-1,0.4-1.5,1.6-1.1,2.6C0.5,99.5,1.2,100,2,100c0.2,0,0.5,0,0.7-0.1l42.9-17.3
	c1.8,2.7,4.9,4.5,8.3,4.5c5.5,0,10-4.5,10-10c0-1.3-0.3-2.5-0.7-3.7L101.9,48c1.8,1.8,4.3,3,7.1,3c5.3,0,9.7-4.2,10-9.5l47.6-7.1
	c1.4,3.8,5.1,6.6,9.4,6.6c5.5,0,10-4.5,10-10c0-1.2-0.2-2.4-0.7-3.5l37.7-23.8C224,3.1,224.3,1.9,223.7,0.9z M54,83
	c-3.3,0-6-2.7-6-6s2.7-6,6-6s6,2.7,6,6S57.3,83,54,83z M109,47c-3.3,0-6-2.7-6-6s2.7-6,6-6s6,2.7,6,6S112.3,47,109,47z M176,37
	c-3.3,0-6-2.7-6-6s2.7-6,6-6s6,2.7,6,6S179.3,37,176,37z"/>
</svg>
