<svg version="1.1" id="Layer_1" xmlns="http://www.w3.org/2000/svg" xmlns:xlink="http://www.w3.org/1999/xlink" x="0px" y="0px"
	 viewBox="0 0 96 96" style="enable-background:new 0 0 96 96;" xml:space="preserve">
<style type="text/css">
	.st0{fill:#00A6BC;}
</style>
<path class="st0" d="M80,48c0-6.7-2-12.8-5.5-18l2.9-2.9C81.5,33,84,40.2,84,48c0,19.9-16.1,36-36,36c-15,0-27.9-9.2-33.3-22.3
	l3.1-3.1C22.2,71.1,34.1,80,48,80C65.6,80,80,65.6,80,48z M12,47.5l4.4-4.4C18.7,27.8,32,16,48,16c6.7,0,12.8,2,18,5.5l2.9-2.9
	C63,14.5,55.8,12,48,12C28.3,12,12.3,27.9,12,47.5z M94,18c1.1,0,2-0.9,2-2V0H80c-1.1,0-2,0.9-2,2s0.9,2,2,2h9.2L42,51.2L29.4,38.6
	c-0.8-0.8-2-0.8-2.8,0l-21,21C4.6,55.9,4,52,4,48C4,23.7,23.7,4,48,4c10,0,19.2,3.3,26.6,9l2.8-2.8C69.3,3.8,59.1,0,48,0
	C21.5,0,0,21.5,0,48s21.5,48,48,48s48-21.5,48-48c0-11.1-3.8-21.3-10.1-29.4L83,21.4c5.6,7.4,9,16.6,9,26.6c0,24.3-19.7,44-44,44
	C29.3,92,13.3,80.3,7,63.9l21-21l12.6,12.6c0.8,0.8,2,0.8,2.8,0L92,6.8V16C92,17.1,92.9,18,94,18z"/>
</svg>
