<svg version="1.1" id="Layer_1" xmlns="http://www.w3.org/2000/svg" xmlns:xlink="http://www.w3.org/1999/xlink" x="0px" y="0px"
	 viewBox="0 0 48 48" style="enable-background:new 0 0 48 48;" xml:space="preserve">
<style type="text/css">
	.st0{fill:#FFf;}
</style>
<path class="st0" d="M24,32c-4.4,0-8-3.6-8-8s3.6-8,8-8s8,3.6,8,8S28.4,32,24,32z M24,20c-2.2,0-4,1.8-4,4s1.8,4,4,4s4-1.8,4-4
	S26.2,20,24,20z M24,48c-2.2,0-4.4-0.3-6.5-0.9L16,46.7v-4.4c-1.4-0.6-2.7-1.3-3.9-2.2l-3.8,2.2l-1.1-1.1c-3.2-3.1-5.5-7-6.6-11.3
	l-0.4-1.5l3.8-2.2C4,25.5,4,24.7,4,24c0-0.7,0-1.5,0.1-2.2l-3.8-2.2l0.4-1.5c1.1-4.3,3.3-8.2,6.6-11.3l1.1-1.1l3.8,2.2
	C13.3,7,14.6,6.3,16,5.7V1.3l1.5-0.4c4.3-1.2,8.8-1.2,13.1,0L32,1.3v4.4c1.4,0.6,2.7,1.3,3.9,2.2l3.8-2.2l1.1,1.1
	c3.2,3.1,5.5,7,6.6,11.3l0.4,1.5l-3.8,2.2C44,22.5,44,23.3,44,24c0,0.7,0,1.5-0.1,2.2l3.8,2.2l-0.4,1.5c-1.1,4.3-3.3,8.2-6.6,11.3
	l-1.1,1.1l-3.8-2.2c-1.2,0.9-2.5,1.6-3.9,2.2v4.4l-1.5,0.4C28.4,47.7,26.2,48,24,48z M20,43.6c2.6,0.5,5.4,0.5,8,0v-4.1l1.3-0.5
	c1.9-0.7,3.6-1.6,5.1-2.9l1.1-0.9l3.5,2c1.8-2,3.2-4.4,4-6.9l-3.5-2l0.3-1.4c0.2-1,0.3-2,0.3-2.9s-0.1-1.9-0.3-2.9l-0.3-1.4l3.5-2
	c-0.9-2.5-2.2-4.9-4-6.9l-3.5,2l-1.1-0.9c-1.5-1.3-3.2-2.3-5.1-2.9L28,8.5V4.4c-2.6-0.5-5.4-0.5-8,0v4.1l-1.3,0.5
	c-1.9,0.7-3.6,1.6-5.1,2.9l-1.1,0.9l-3.5-2c-1.8,2-3.2,4.4-4,6.9l3.5,2l-0.3,1.4c-0.2,1-0.3,2-0.3,2.9s0.1,1.9,0.3,2.9l0.3,1.4
	l-3.5,2c0.9,2.5,2.2,4.9,4,6.9l3.5-2l1.1,0.9c1.5,1.3,3.2,2.3,5.1,2.9l1.3,0.5V43.6z"/>
</svg>
