<svg version="1.1" id="Layer_1" xmlns="http://www.w3.org/2000/svg" xmlns:xlink="http://www.w3.org/1999/xlink" x="0px" y="0px"
	 viewBox="0 0 72 72" style="enable-background:new 0 0 72 72;" xml:space="preserve">
<style type="text/css">
	.st0{fill:#00A6BC;}
</style>
<path class="st0" d="M70.5,0h-69C0.7,0,0,0.7,0,1.5V12c0,0.3,0.1,0.7,0.3,0.9l25.2,32.6v25c0,0.6,0.3,1.1,0.8,1.3
	c0.2,0.1,0.5,0.2,0.7,0.2c0.3,0,0.6-0.1,0.8-0.3l18-12c0.4-0.3,0.7-0.7,0.7-1.2v-13l25.2-32.6c0.2-0.3,0.3-0.6,0.3-0.9V1.5
	C72,0.7,71.3,0,70.5,0z M69,3v6H3V3H69z M43.8,44.1c-0.2,0.3-0.3,0.6-0.3,0.9v12.7l-15,10V45c0-0.3-0.1-0.7-0.3-0.9L3.4,12h65.2
	L43.8,44.1z"/>
</svg>
