<?xml version="1.0" encoding="UTF-8" standalone="no"?><!DOCTYPE svg PUBLIC "-//W3C//DTD SVG 1.1//EN" "http://www.w3.org/Graphics/SVG/1.1/DTD/svg11.dtd"><svg width="100%" height="100%" viewBox="0 0 68 68" version="1.1" xmlns="http://www.w3.org/2000/svg" xmlns:xlink="http://www.w3.org/1999/xlink" xml:space="preserve" style="fill-rule:evenodd;clip-rule:evenodd;stroke-linejoin:round;stroke-miterlimit:1.41421;"><g><g><path d="M11.996,49.321l-9.401,0c-1.02,0 -1.854,0.823 -1.854,1.854l0,14.294c0,1.02 0.823,1.854 1.854,1.854l9.401,0c1.02,0 1.854,-0.823 1.854,-1.854l0,-14.294c0,-1.031 -0.823,-1.854 -1.854,-1.854Zm-7.547,14.294l0,-10.597l5.693,0l0,10.597l-5.693,0Z" style="fill:#0086a7;fill-rule:nonzero;"/><path d="M29.844,35.346l-9.401,0c-1.02,0 -1.854,0.823 -1.854,1.854l0,28.269c0,1.02 0.823,1.854 1.854,1.854l9.401,0c1.02,0 1.854,-0.823 1.854,-1.854l0,-28.28c0,-1.02 -0.823,-1.843 -1.854,-1.843Zm-7.536,28.269l0,-24.572l5.693,0l0,24.572l-5.693,0Z" style="fill:#0086a7;fill-rule:nonzero;"/><path d="M47.68,21.371l-9.401,0c-1.02,0 -1.853,0.822 -1.853,1.853l0,42.245c0,1.02 0.822,1.854 1.853,1.854l9.401,0c1.021,0 1.854,-0.823 1.854,-1.854l0,-42.255c-0.011,-1.021 -0.833,-1.843 -1.854,-1.843Zm-1.853,42.244l-5.694,0l0,-38.548l5.694,0l0,38.548Z" style="fill:#0086a7;fill-rule:nonzero;"/><path d="M65.517,7.373l-9.401,0c-1.02,0 -1.854,0.823 -1.854,1.854l0,56.22c0,1.02 0.823,1.854 1.854,1.854l9.401,0c1.02,0 1.854,-0.823 1.854,-1.854l0,-56.209c-0.011,-1.02 -0.834,-1.865 -1.854,-1.865Zm-1.854,56.242l-5.693,0l0,-52.523l5.693,0l0,52.523Z" style="fill:#0086a7;fill-rule:nonzero;"/><path d="M38.619,0.704l-9.675,0c-1.02,0 -1.854,0.823 -1.854,1.854c0,1.031 0.823,1.853 1.854,1.853l5.211,0l-32.657,32.635c-0.724,0.724 -0.724,1.887 0,2.622c0.658,0.647 2.128,0.494 2.622,0l32.646,-32.646l0,5.211c0,1.02 0.822,1.854 1.853,1.854c1.021,0 1.854,-0.823 1.854,-1.854l0,-9.675c0,-1.021 -0.822,-1.854 -1.854,-1.854Z" style="fill:#0086a7;fill-rule:nonzero;"/></g></g></svg>